<svg xmlns="http://www.w3.org/2000/svg" viewBox="0 0 1040 560" font-family="-apple-system, 'Segoe UI', Helvetica, Arial, sans-serif">
  <title>WiggleCam system wiring diagram, v2 controller-board build (see hardware/wiring.md)</title>
  <defs>
    <marker id="a" viewBox="0 0 10 10" refX="9" refY="5" markerWidth="7" markerHeight="7" orient="auto-start-reverse">
      <path d="M0,0 L10,5 L0,10 z" fill="#57606a"/>
    </marker>
    <marker id="ar" viewBox="0 0 10 10" refX="9" refY="5" markerWidth="7" markerHeight="7" orient="auto-start-reverse">
      <path d="M0,0 L10,5 L0,10 z" fill="#b3423a"/>
    </marker>
  </defs>
  <rect x="1" y="1" width="1038" height="558" rx="10" fill="#ffffff" stroke="#d0d7de"/>

  <text x="30" y="36" font-size="13" fill="#57606a">v2 controller-board build (the v1 perfboard version is in hardware/wiring.md)</text>

  <!-- boxes -->
  <g stroke="#57606a" fill="#f6f8fa" stroke-width="1.5">
    <rect x="30"  y="70"  width="190" height="70" rx="8"/>
    <rect x="290" y="70"  width="180" height="70" rx="8"/>
    <rect x="560" y="50"  width="200" height="280" rx="8"/>
    <rect x="290" y="180" width="180" height="70" rx="8"/>
    <rect x="30"  y="400" width="200" height="80" rx="8"/>
    <rect x="330" y="415" width="170" height="70" rx="8"/>
    <rect x="560" y="400" width="240" height="100" rx="8"/>
    <rect x="860" y="415" width="150" height="70" rx="8"/>
  </g>

  <!-- box labels -->
  <g text-anchor="middle" fill="#24292f">
    <text x="125" y="100" font-size="15" font-weight="600">4x IMX519 modules</text>
    <text x="125" y="122" font-size="12.5" fill="#57606a">16 MP, 40 mm apart</text>
    <text x="380" y="100" font-size="15" font-weight="600">Camarray HAT</text>
    <text x="380" y="122" font-size="12.5" fill="#57606a">hardware sync</text>
    <text x="660" y="165" font-size="16" font-weight="600">Raspberry Pi 5</text>
    <text x="660" y="186" font-size="12.5" fill="#57606a">capture + processing</text>
    <text x="380" y="210" font-size="15" font-weight="600">4.3" touchscreen</text>
    <text x="380" y="232" font-size="12.5" fill="#57606a">Waveshare, Rev 2.2+</text>
    <text x="130" y="428" font-size="15" font-weight="600">X1202 UPS HAT</text>
    <text x="130" y="448" font-size="12.5" fill="#57606a">4x 18650 + BMS</text>
    <text x="130" y="468" font-size="12.5" fill="#57606a">USB-C charge in</text>
    <text x="415" y="443" font-size="15" font-weight="600">Shutter button</text>
    <text x="415" y="463" font-size="12.5" fill="#57606a">top plate, JST + TVS</text>
    <text x="680" y="428" font-size="15" font-weight="600">RP2040 controller board</text>
    <text x="680" y="448" font-size="12.5" fill="#57606a">constant-current flash, EC11</text>
    <text x="680" y="466" font-size="12.5" fill="#57606a">debounce, INA219, WS2812</text>
    <text x="935" y="443" font-size="15" font-weight="600">2x Cree XP-G3</text>
    <text x="935" y="463" font-size="12.5" fill="#57606a">flash LEDs</text>
  </g>

  <!-- Pi port labels -->
  <g font-size="11" fill="#57606a">
    <text x="572" y="109">CAM0</text>
    <text x="572" y="219">DISP1</text>
    <text x="620" y="320" text-anchor="middle">5 V in</text>
    <text x="700" y="320" text-anchor="middle">pins 1-12</text>
  </g>

  <!-- data / control connections -->
  <g stroke="#57606a" stroke-width="2" fill="none">
    <line x1="220" y1="105" x2="286" y2="105" marker-end="url(#a)"/>
    <line x1="470" y1="105" x2="556" y2="105" marker-end="url(#a)"/>
    <line x1="474" y1="215" x2="556" y2="215" marker-start="url(#a)" marker-end="url(#a)"/>
    <line x1="700" y1="334" x2="700" y2="396" marker-start="url(#a)" marker-end="url(#a)"/>
    <line x1="500" y1="450" x2="556" y2="450" marker-end="url(#a)"/>
  </g>

  <!-- power connections -->
  <g stroke="#b3423a" stroke-width="2.5" fill="none">
    <line x1="620" y1="396" x2="620" y2="334" marker-end="url(#ar)"/>
    <path d="M230,440 H272 V520 H660 V504" marker-end="url(#ar)"/>
    <line x1="800" y1="450" x2="856" y2="450" marker-end="url(#ar)"/>
  </g>

  <!-- connection labels -->
  <g text-anchor="middle" font-size="12" fill="#57606a">
    <text x="253" y="95">4x MIPI</text>
    <text x="513" y="95">22-pin CSI</text>
    <text x="515" y="205">22-pin DSI</text>
    <text x="712" y="356" text-anchor="start">2x6 socket: I2C 0x17 + UART</text>
    <text x="712" y="372" text-anchor="start">sync → GPIO 17, ATTN → GPIO 18</text>
    <text x="528" y="441">JST</text>
    <text x="608" y="368" text-anchor="end" fill="#b3423a">5.1 V / 5 A</text>
    <text x="466" y="538" fill="#b3423a">5 V pack feed, through the INA219 shunt</text>
    <text x="828" y="441" font-size="11" fill="#b3423a">2 A pulse</text>
  </g>

  <!-- legend -->
  <g stroke-width="2.5">
    <line x1="830" y1="80" x2="868" y2="80" stroke="#b3423a"/>
    <line x1="830" y1="102" x2="868" y2="102" stroke="#57606a"/>
  </g>
  <g font-size="12" fill="#57606a">
    <text x="876" y="84">power</text>
    <text x="876" y="106">data / control</text>
  </g>
</svg>
