<svg xmlns="http://www.w3.org/2000/svg" viewBox="0 0 1040 510" font-family="-apple-system, 'Segoe UI', Helvetica, Arial, sans-serif">
  <title>WiggleCam system wiring diagram — see hardware/wiring.md</title>
  <defs>
    <marker id="a" viewBox="0 0 10 10" refX="9" refY="5" markerWidth="7" markerHeight="7" orient="auto-start-reverse">
      <path d="M0,0 L10,5 L0,10 z" fill="#57606a"/>
    </marker>
    <marker id="ar" viewBox="0 0 10 10" refX="9" refY="5" markerWidth="7" markerHeight="7" orient="auto-start-reverse">
      <path d="M0,0 L10,5 L0,10 z" fill="#b3423a"/>
    </marker>
  </defs>
  <rect x="1" y="1" width="1038" height="508" rx="10" fill="#ffffff" stroke="#d0d7de"/>

  <!-- boxes -->
  <g stroke="#57606a" fill="#f6f8fa" stroke-width="1.5">
    <rect x="30"  y="70"  width="190" height="70" rx="8"/>
    <rect x="290" y="70"  width="180" height="70" rx="8"/>
    <rect x="560" y="50"  width="200" height="280" rx="8"/>
    <rect x="290" y="180" width="180" height="70" rx="8"/>
    <rect x="830" y="90"  width="180" height="80" rx="8"/>
    <rect x="30"  y="370" width="220" height="80" rx="8"/>
    <rect x="330" y="370" width="200" height="80" rx="8"/>
    <rect x="610" y="383" width="160" height="54" rx="8"/>
  </g>

  <!-- box labels -->
  <g text-anchor="middle" fill="#24292f">
    <text x="125" y="100" font-size="15" font-weight="600">4 × IMX519 modules</text>
    <text x="125" y="122" font-size="12.5" fill="#57606a">16 MP, 40 mm apart</text>
    <text x="380" y="100" font-size="15" font-weight="600">Camarray HAT</text>
    <text x="380" y="122" font-size="12.5" fill="#57606a">hardware sync</text>
    <text x="660" y="165" font-size="16" font-weight="600">Raspberry Pi 5</text>
    <text x="660" y="186" font-size="12.5" fill="#57606a">capture + processing</text>
    <text x="380" y="210" font-size="15" font-weight="600">4.3″ touchscreen</text>
    <text x="380" y="232" font-size="12.5" fill="#57606a">Waveshare, Rev 2.2+</text>
    <text x="920" y="125" font-size="15" font-weight="600">Shutter + filter</text>
    <text x="920" y="147" font-size="12.5" fill="#57606a">buttons</text>
    <text x="140" y="400" font-size="15" font-weight="600">X1202 UPS HAT</text>
    <text x="140" y="422" font-size="12.5" fill="#57606a">4 × 18650 + BMS</text>
    <text x="430" y="400" font-size="15" font-weight="600">LED flash driver</text>
    <text x="430" y="422" font-size="12.5" fill="#57606a">IRLZ44N + 2 × 2200 µF</text>
    <text x="690" y="406" font-size="15" font-weight="600">2 × Cree XP-G3</text>
    <text x="690" y="425" font-size="12.5" fill="#57606a">flash LEDs</text>
  </g>

  <!-- Pi port labels -->
  <g font-size="11" fill="#57606a">
    <text x="572" y="109">CAM0</text>
    <text x="572" y="219">DISP1</text>
    <text x="620" y="320" text-anchor="middle">5 V in</text>
    <text x="700" y="320" text-anchor="middle">GPIO 18</text>
  </g>

  <!-- data / control connections -->
  <g stroke="#57606a" stroke-width="2" fill="none">
    <line x1="220" y1="105" x2="286" y2="105" marker-end="url(#a)"/>
    <line x1="470" y1="105" x2="556" y2="105" marker-end="url(#a)"/>
    <line x1="474" y1="215" x2="556" y2="215" marker-start="url(#a)" marker-end="url(#a)"/>
    <line x1="828" y1="130" x2="764" y2="130" marker-end="url(#a)"/>
    <path d="M700,330 V358 H480 V366" marker-end="url(#a)"/>
  </g>

  <!-- power connections -->
  <g stroke="#b3423a" stroke-width="2.5" fill="none">
    <path d="M140,370 V344 H620 V334" marker-end="url(#ar)"/>
    <line x1="250" y1="410" x2="326" y2="410" marker-end="url(#ar)"/>
    <line x1="530" y1="410" x2="606" y2="410" marker-end="url(#ar)"/>
    <line x1="90"  y1="492" x2="90"  y2="454" marker-end="url(#ar)"/>
  </g>

  <!-- connection labels -->
  <g text-anchor="middle" font-size="12" fill="#57606a">
    <text x="253" y="95">4 × MIPI</text>
    <text x="513" y="95">22-pin CSI</text>
    <text x="515" y="205">22-pin DSI</text>
    <text x="796" y="120">GPIO 17 / 27</text>
    <text x="712" y="350" text-anchor="start">flash gate</text>
    <text x="395" y="338" fill="#b3423a">5.1 V / 5 A</text>
    <text x="289" y="400" fill="#b3423a">5 V tap</text>
    <text x="568" y="400" fill="#b3423a">2 A pulse</text>
    <text x="103" y="480" fill="#b3423a" text-anchor="start">USB-C charge input</text>
  </g>

  <!-- legend -->
  <g stroke-width="2.5">
    <line x1="820" y1="462" x2="858" y2="462" stroke="#b3423a"/>
    <line x1="820" y1="484" x2="858" y2="484" stroke="#57606a"/>
  </g>
  <g font-size="12" fill="#57606a">
    <text x="866" y="466">power</text>
    <text x="866" y="488">data / control</text>
  </g>
</svg>
